<?xml version="1.0" encoding="utf-8"?>
<!-- Generator: Adobe Illustrator 19.2.1, SVG Export Plug-In . SVG Version: 6.00 Build 0)  -->
<svg version="1.1" id="Laag_1" xmlns:sketch="http://www.bohemiancoding.com/sketch/ns"
	 xmlns="http://www.w3.org/2000/svg" xmlns:xlink="http://www.w3.org/1999/xlink" x="0px" y="0px" viewBox="0 0 360 256"
	 style="enable-background:new 0 0 360 256;" xml:space="preserve">
<style type="text/css">
	.st0{fill:#6B6B6B;}
	.st1{fill:#FFFFFF;}
	.st2{clip-path:url(#SVGID_4_);fill-rule:evenodd;clip-rule:evenodd;fill:#FFFFFF;}
	.st3{clip-path:url(#SVGID_6_);}
	.st4{clip-path:url(#SVGID_8_);fill:#FFFFFF;}
</style>
<circle id="Oval-1" sketch:type="MSShapeGroup" cx="180" cy="76" r="180">
</circle>
<title>Group</title>
<desc>Created with Sketch.</desc>
<path class="st0" d="M318.5,173.7c-3-4.3-6.1-8.4-9.2-12.6c-0.5-0.7-1-1.5-1.4-2.3c-0.5-0.8-0.4-1.1,0.6-1.4
	c0.7-0.2,1.4-0.2,2.1-0.3c0.4-0.1,0.8-0.1,1.2-0.1c0.7-0.1,0.9-0.4,0.7-1.1c-0.2-0.6-0.5-1.3-0.8-1.9c-1.7-2.8-3.4-5.5-5.2-8.3
	c-3.3-5-6.8-9.7-10.4-14.4c-0.8-1.1-1.6-2.2-2.4-3.3c-0.9-1.3-1.5-2.6-1.5-4.2c-0.1-1-0.5-1.7-1.1-2.5c-4.8-5.6-9.5-11.2-14.3-16.7
	c-1.2-1.4-2.5-2.6-3.8-3.9c-1.6-1.6-3.3-3.3-5-4.9c-0.5-0.5-0.9-0.9-1.4-1.3c-4.7-3.7-9.5-7.3-14.2-11c-1.7-1.3-3.5-2.6-5.4-3.8
	c-1-0.6-2-1.1-3.1-1.6c-4.8-2.3-9.5-4.7-14.3-7c-1-0.5-2.1-0.9-3.2-1.4c-2-1-3.9-2.2-5.8-3.3c-0.3-0.2-0.5-0.5-0.6-0.8
	c-0.7-1.6-1.3-3.2-2-4.9c-0.5-1.3-0.5-2.5,0.6-3.6c-0.4-0.8-0.8-1.7-1.2-2.5c-0.6-1-0.7-1.9,0.1-2.8c0.6-0.6,0.6-1.4,0.3-2.2
	c-0.1-0.4-0.2-0.8-0.2-1.2c0-0.7,0.2-0.8,0.9-0.9c0.3,0,0.5,0,0.9,0c0-0.3,0-0.6,0-0.9c-0.2-1-0.5-2-0.8-3c-0.3-1.1-0.6-2.1-0.3-3.3
	c0.9,0.2,1.7,0.4,2.1,1.3c0.2,0.3,0.5,0.6,0.7,0.8c1.2,1.1,2.3,2.1,3.5,3.2c0.4,0.4,0.8,0.8,1.4,0.9c0.4-0.5,0.1-1-0.1-1.3
	c-1.2-2.1-2.3-4.1-3.5-6.2c-0.2-0.3-0.5-0.6-0.4-1c0.4-0.2,0.7,0.2,0.9,0.4c2.2,1.9,4.3,3.8,6.5,5.7c0.9,0.7,1.7,1.5,2.6,2.2
	c0.3,0.2,0.6,0.4,1,0.6c0.4,0.2,0.8,0.4,1.1,0.1c0.2-0.3,0.3-0.8,0.1-1.2c-0.2-0.7-0.5-1.3-0.9-2c-1-1.7-2.2-3.1-3.5-4.5
	c-0.9-0.9-1.8-1.9-2.7-2.8c-0.2-0.2-0.4-0.4-0.8-0.9c0.5,0.1,0.9,0,1.2,0.1c0.7,0.2,1.4,0.4,2,0.7c2.7,1.5,5.4,2.8,7.8,4.7
	c0.5,0.4,1,0.7,1.6,0.9c0.2,0.1,0.5,0.2,0.8,0.2c0.8,0.1,1.1-0.2,0.8-0.9c-0.7-1.9-1.4-3.7-3-5.1c-2.2-1.9-4.5-3.7-6.7-5.6
	c-0.3-0.2-0.5-0.4-0.8-0.7c0.4-0.4,0.9-0.4,1.4-0.4c1.6,0,3.2,0.5,4.7,1c2.5,0.8,4.9,1.7,7.4,2.5c0.3,0.1,0.6,0.2,0.9,0.3
	c0.8,0.1,1.2-0.4,0.8-1.1c-0.3-0.5-0.6-0.9-1.1-1.2c-1.5-1.3-3.2-2.5-5-3.3c-1.4-0.7-2.9-1.3-4.3-1.9c-0.6-0.2-1.1-0.5-1.6-0.8
	c0-0.1,0-0.2,0-0.2c0.3-0.1,0.7-0.3,1-0.4c1-0.1,2-0.2,3.1-0.2c1,0,1.9,0,2.8-0.4c0.6-0.3,1.2-0.4,1.9-0.5c0.6-0.2,1.2-0.3,1.6-1
	c-0.1-0.2-0.3-0.5-0.5-0.6c-0.7-0.5-1.5-1.1-2.3-1.4c-1.8-0.6-3.6-1-5.5-1.4c-0.4-0.1-0.8,0-1.1-0.1c-0.3-0.1-0.7-0.2-1.1-0.4
	c0.2-0.3,0.2-0.5,0.4-0.7c0.3-0.4,0.7-0.7,1-1c0.9-0.8,1.5-1.8,1.9-3c0.3-0.8,0.7-1.5,1-2.3c0.2-0.5,0.3-1,0.4-1.5
	c0-0.5-0.2-0.7-0.8-0.6c-0.5,0.1-0.9,0.3-1.3,0.5c-1.9,1-3.9,2.1-5.8,3.2c-2.4,1.4-5,2.5-7.6,3.4c-1.4,0.5-2.8,0.8-4.3,1
	c-1.1,0.2-2.3,0.2-3.4,0c-4.3-0.5-8.6-1.1-12.8-1.6c-0.6-0.1-1.1-0.3-1.7-0.3c-1.1-0.1-2.1-0.1-3.2-0.1c-0.5,0-1.1,0.1-1.5-0.1
	c-0.6-0.2-1.2-0.1-1.7,0.3c-0.7,0.5-1.4,1.2-2.1,1.8c-0.4,0.4-0.7,0.8-1.1,1.3c-0.6,0.9-1.5,1.2-2.5,1.1c-2.1,0-4.2,0-6.3-0.1
	c-2.1-0.1-4.2,0.4-6,1.3c-0.6,0.3-1.1,0.7-1.4,1.3c-0.6,0.9-1.1,1.9-1.7,2.9c-0.1,0.8-0.2,1.6-0.3,2.5c0,0.2,0.1,0.3,0.1,0.5
	c0,1.1,0.4,2.1,1.1,2.9c0.1,0.2,0.3,0.3,0.5,0.4c0.2-0.7,0.3-1.2,0.5-1.8c0.1-0.2,0.4-0.5,0.6-0.6c1.2-0.3,2.5-0.4,3.7,0
	c2.1,0.7,4.2,1.4,6.3,2.1c1.7,0.6,3.3,1.2,4.9,1.8c0.5,0.2,0.9,0.4,1,1c0.2,1.6,0.4,3.2,0.8,4.7c0.2,0.9,0.2,1.7-0.2,2.5
	c-0.8,2-1.7,3.9-2.5,5.9c-0.4,1-0.8,2-1,3c-0.3,1.2-0.5,2.5-0.7,3.7c-0.4,2.6-1.3,4.9-3,7c-0.9,1.2-1.8,2.4-2.7,3.6
	c-0.6,0.9-1.2,1.7-1.7,2.7c-0.6,1.1-0.4,1.4,0.8,1.8c0.1,0,0.1,0.1,0.2,0.2c-0.1,0.2-0.1,0.5-0.2,0.7c-0.8,2.3-1.6,4.7-2.4,7
	c-0.2,0.6-0.4,1.2-0.5,1.9c-0.1,0.4-0.1,0.8,0.4,1c0.3-0.1,0.6-0.2,1-0.3c0,1.3-0.2,2.5-0.7,3.7c-0.2,0.5-0.4,0.9-0.4,1.4
	c-0.3,2-0.5,3.9-0.7,5.9c0,0.3,0,0.7,0.2,1c0.4,0.6,0.4,1.1,0.4,1.8c0,2.2-0.1,4.5-0.1,6.7c0,0.7-0.1,1.5,0.2,2.2
	c0.2,0,0.3,0,0.4-0.1c1.3-0.2,1.4-0.1,1.5,1.2c0.1,0.7,0.1,1.5,0.1,2.3c0.2,1.8,0.9,3.5,2.2,4.7c0.4,0.4,0.7,0.9,0.9,1.4
	c0.4,1.1,0.9,2.1,1.4,3.2c0.1,0.3,0.3,0.7,0.3,1.1c0.1,1.7,1.1,3,2.8,3.5c1.5,0.5,2.8,1.3,4.1,2.3c0.8,0.6,1.6,1.2,2.4,1.8
	c0.6,0.4,1.3,0.7,1.9,1.2c1.9,1.6,3.7,3.3,5.6,5c1.4,1.3,2.6,2.6,3.9,3.9c1,1,1.9,1.9,2.8,3c2.4,2.8,4.3,5.8,5.8,9.2
	c2.5,5.5,5.1,11,7.7,16.5c0.1,0.1,0.1,0.3,0.1,0.4c0.3,0.7,0.5,1.4,0.9,2.1c0.5,0.9,0.8,1.7,0.7,2.7c0,0.3,0,0.7,0.1,1
	c0.5,1.8,0.5,3.7,0.5,5.5c0.1,4,0.2,8,0.3,12c0,3.6,0,7.3,0,10.9c0,2.4-0.2,4.9-0.3,7.3c-0.1,3.5-0.1,7.1-0.2,10.6
	c-0.1,3.4-0.1,6.7-0.1,10.1c0,2.5,0,5,0,7.5c0,0.8-0.2,1.6-0.3,2.5c-0.2-0.2-0.4-0.3-0.5-0.4c-0.9-0.8-1.7-1.6-2.6-2.3
	c-1.8-1.3-3.5-2.7-4.5-4.8c-0.1-0.2-0.4-0.4-0.6-0.5c-0.7-0.1-1.4-0.2-2.1-0.2c-0.4,0-0.8,0.1-1.1,0.4c-0.7,0.5-1.1,1.2-1,2.2
	c0.1,0.9,0.4,1.5,1.3,1.8c1,0.4,1.9,1.6,2,2.8c-0.4,0-0.7,0-1.1-0.1c-1.2-0.4-2.2-1-3.1-1.8c-0.4-0.4-0.8-0.7-1.3-1
	c-2.8-1.5-4.4,0.5-5.1,2.7c-0.2,0.7,0.2,1.2,0.9,1.1c1.5-0.1,2.4,0.5,2.9,1.8c0.3,0.6,0.8,1,1.5,1.2c0.6,0.2,1.1,0.7,1.6,1
	c0.5,0.3,0.5,0.8,0.4,1.3c-0.2,1-0.4,2.1-0.5,3.1c-0.1,0.9,0.5,1.2,1.3,0.8c0.3-0.2,0.6-0.4,0.9-0.6c0.3,0.3,0.5,0.6,0.8,0.9
	c0.4,0.5,0.8,0.7,1.4,0.6c0.7-0.1,1.5-0.2,2.2-0.2c0.6-0.1,1.3-0.1,2-0.1c-0.3,0.6-0.8,0.8-1.2,0.9c-1.8,0.4-3.6,0.8-5.4,1.2
	c-0.8,0.2-1.9,1.3-1.7,2.1c0.4,1.3,1,2.6,1.5,3.9c0,0,0,0.1,0.1,0.1c0.7-0.1,1.4-0.3,2.1-0.4c0,0,0,0,0,0c0.2-0.5,0.3-1.1,0.8-1.4
	c0.1,0,0.2,0,0.2,0c1.5,0.9,1.5,0.6,2.6-0.4c0.1-0.1,0.2-0.2,0.4-0.4c0.5-0.4,1-1,1.6-1.3c1.6-0.8,3.4-1.3,5.2-1.5
	c0.2,0,0.4,0,0.7,0.1c0,0.2,0,0.3,0,0.4c-0.1,0.2-0.2,0.4-0.4,0.5c-0.9,0.6-1.9,1.2-3,1.8c0,0.1,0,0.2,0,0.3c3.5-0.9,7-1.9,10.4-2.9
	c0.4-0.2,0.7-0.3,1.2-0.4c0.1,0,0.1,0,0.2,0c3.7-1.2,7.3-2.5,10.8-3.9c-0.2-0.6-0.5-1.1-0.9-1.6c-1-1.4-2.3-1.8-3.7-0.7
	c-1.3,1-2.7,1.5-4.4,1.4c-0.4,0-0.8,0.1-1.2,0.2c-0.6,0.1-0.8,0-0.8-0.6c0-0.8,0-1.7,0.1-2.5c0.2-1.2,0.5-2.3,0.6-3.5
	c0.6-4.8,1.1-9.6,1.8-14.4c1.2-8.1,1.7-16.2,2.5-24.3c0.5-5.3,1.1-10.5,2-15.7c0.2-1,0.4-1.9,0.7-2.9c0.3-1.1,0.8-2,1.5-2.9
	c0.6-0.8,1.1-1.6,1.6-2.4c0.1-0.1,0.2-0.3,0.3-0.4c2.3-2.8,3.7-6.1,5.1-9.3c0.8-1.7,1.6-3.4,2.1-5.2c0.5-1.7,0.6-3.4,0.9-5.2
	c0.1-0.4,0.1-0.7,0.2-1.3c0.4,0.5,0.6,0.7,0.8,1c0.7,1,1.3,2.1,2,3.1c0.3,0.4,0.5,0.9,0.8,1.3c0.8,1.2,1.1,1.2,2.4,0.6
	c1.2-0.6,2.5-1,3.7-1.5c0.4,0.4,0.7,0.9,1.1,1.3c1.2,1.5,2.7,2.2,4.6,1.8c0.1,0,0.3-0.1,0.4-0.1c1.4,0.1,2.2-0.4,2.5-1.9
	c0.2-0.9,0.6-1,1.4-0.5c0.6,0.4,1.2,0.8,1.7,1.3c2,1.7,2,1.7,4.4,0.8c0.6-0.2,1.2-0.4,1.8-0.5c0.9-0.2,1.6,0.1,2.1,1
	c0.5,0.9,1.3,1.8,1.9,2.7c0.5,0.7,1,1.3,1.3,2.1c3,5.7,6.8,10.9,10.3,16.2c0.9,1.3,1.8,2.7,2.7,4c0.3,0.4,0.6,0.8,0.9,1.2
	c1.1,1.3,1.2,1.3,2.4,0.2c0.1-0.1,0.3-0.2,0.5-0.3c0.2,0.3,0.5,0.6,0.6,0.9c1.1,2.1,2.2,4.2,2.9,6.4c0.5,1.7,1.3,3.3,2,4.8
	c0.3,0.6,0.6,1.2,0.8,1.9c2.7-2.9,5.4-5.9,7.9-9c-0.2-0.4-0.4-0.9-0.7-1.3c-0.7-1.4-1.3-2.8-2-4.2c-0.2-0.4-0.3-0.8-0.4-1.3
	c0.9-0.3,1.4,0.3,2,0.6c0.6,0.4,1.1,0.7,1.8,1.2c0.2-0.8,0.3-1.5,0.4-2.2c0.9-0.1,1.7,0.2,2.5,0.6c0.3,0.2,0.7,0.4,1.1,0.5
	c0.3-0.4,0.6-0.7,0.8-1.1c-0.1-0.3-0.2-0.5-0.4-0.8C322.2,179.4,320.4,176.5,318.5,173.7z M238.6,174.3c-1.4,11.9-2.7,23.8-4.1,35.7
	c-0.9,8.1-1.9,16.1-3.4,24.1c-0.2,1-0.4,2.1-0.7,3.1c-0.1,0.3-0.3,0.5-0.4,0.7c-0.1,0-0.2,0-0.3-0.1c-0.1-0.8-0.2-1.5-0.2-2.3
	c0-6.8,0.1-13.6,0.1-20.3c0.1-7.3,0.2-14.6,0.1-22c-0.1-6.8,0.2-13.6,0.3-20.4c0-0.6,0.2-1.1,0.7-1.5c1.9-1.7,3.5-3.7,4.1-6.2
	c0.1-0.6,0.4-1.1,0.7-1.8c0.2,0.4,0.4,0.5,0.4,0.7c0.5,1.5,1,2.9,1.4,4.4c0.4,1.3,0.6,2.6,1,3.9C238.6,173,238.7,173.6,238.6,174.3z
	"/>
<path id="FLIGHT_x21_" sketch:type="MSShapeGroup" class="st1" d="M61.3,55.4c-0.2-0.1-0.4-0.3-0.7-0.6s-0.5-0.7-0.7-1.1
	s-0.4-0.8-0.5-1.2s-0.2-0.7-0.1-0.9c0.1-0.3,0.3-0.6,0.6-1s0.7-0.8,1.1-1.2s0.8-0.8,1.2-1.1s0.7-0.5,1-0.5c0.8-0.2,2-0.5,3.7-0.9
	s3.5-0.9,5.6-1.4c2.1-0.5,4.3-1,6.6-1.6c2.3-0.5,4.5-1,6.6-1.5s4-0.9,5.7-1.3s2.9-0.7,3.7-0.8c0.3-0.1,0.9-0.1,1.6-0.2
	S98.2,40,99,40s1.6-0.1,2.4-0.2s1.3-0.1,1.5-0.1c0,1.2-0.1,2.1-0.4,2.7s-0.7,0.9-1.3,1.1s-1.2,0.3-1.9,0.3s-1.5,0.1-2.4,0.3
	c-0.7,0.2-1.7,0.5-3.2,0.9s-3.2,0.8-5,1.3s-3.8,1-5.8,1.5s-4,1-5.9,1.6s-3.5,1-5,1.4s-2.6,0.7-3.3,0.9c-1,1.1-1.5,2.1-1.7,3
	s-0.2,2-0.2,3.2c0,2.8,0.2,5.5,0.5,8c0.4,2.5,0.8,5.3,1.3,8.3c0.1,0,0.3,0,0.5,0s0.4,0,0.5,0c1.8,0,3.5-0.2,5.1-0.6s3.3-0.9,5-1.4
	s3.4-1,5.1-1.4s3.5-0.6,5.3-0.6c0.3,0,0.7,0,1.3,0s1.2,0.1,1.8,0.3s1,0.4,1.4,0.6s0.4,0.6,0.2,1.1l-25.2,7.6v26.8
	c-1.2,0-2.1-0.1-2.7-0.4s-1.1-0.7-1.4-1.3s-0.4-1.2-0.5-2s-0.1-1.6-0.2-2.6c-0.1-1.1-0.3-2.8-0.5-5.2s-0.4-5-0.6-8s-0.5-6.1-0.7-9.3
	s-0.5-6.4-0.8-9.3s-0.5-5.6-0.7-8S61.4,56.5,61.3,55.4L61.3,55.4z M104.3,40.4l3.7,61.9c5.8,0,11.6-0.4,17.4-1.1
	c5.8-0.7,11.8-1.4,17.9-2.1l0.4,3.2c-0.1,0-0.7,0.1-1.8,0.2s-2.6,0.4-4.5,0.6s-4,0.5-6.3,0.7s-4.7,0.5-7,0.8
	c-2.3,0.3-4.6,0.5-6.7,0.8s-4,0.5-5.6,0.6c-0.1,0-0.2,0-0.5,0s-0.6,0-0.9,0h-1h-0.8c-1.4,0-2.6-0.8-3.5-2.3s-1.7-3.6-2.2-6.2
	s-1-5.7-1.3-9.1c-0.3-3.4-0.5-7-0.6-10.7s-0.2-7.5-0.1-11.2s0-7.3,0-10.7s0-6.4,0-9.1s-0.1-4.9-0.3-6.3H104.3z M147.5,37.3
	c0-0.8,0.3-1.4,0.8-1.9s1.2-0.7,2-0.7h0.5h0.5c0.3,5.5,0.6,10.7,0.9,15.6s0.5,9.7,0.6,14.5s0.3,9.5,0.3,14.2s0.1,9.7,0.1,14.8
	c0,0.7,0,1.7,0.1,2.9s0.2,2.4,0.3,3.6s0.2,2.2,0.3,3.2s0.1,1.4,0.1,1.5l-4.2,0.8c-0.1-2.7-0.3-5.7-0.4-9.2s-0.2-7.2-0.3-11.1
	s-0.2-8-0.3-12.2s-0.2-8.3-0.4-12.5s-0.3-8.1-0.5-11.9s-0.3-7.3-0.5-10.4V37.3z M202.7,99.6c-2.5,1.3-4.8,2.3-6.7,3.1
	s-3.8,1.4-5.7,1.8s-3.7,0.7-5.5,0.8s-4,0.2-6.4,0.2c-3.2,0-6.1-0.4-8.6-1.1s-4.7-1.9-6.5-3.4s-3.2-3.5-4.2-5.9s-1.5-5.3-1.5-8.6
	c0-3.1,0.3-6.3,0.9-9.7s1.5-6.8,2.7-10.1s2.7-6.6,4.5-9.7s3.9-5.8,6.3-8.2s5.1-4.2,8.1-5.6s6.3-2.1,10-2.1c1.4,0,3,0.1,4.9,0.4
	s3.7,0.8,5.4,1.5s3.2,1.7,4.3,2.9s1.8,2.9,1.8,4.8c0,0.7-0.3,1.1-1,1s-1.5-0.3-2.5-0.7s-2.1-1-3.4-1.8s-2.5-1.4-3.7-2.1
	s-2.2-1.2-3.2-1.7s-1.7-0.6-2.2-0.5c-3.1,0-6,0.6-8.5,1.8s-4.8,2.8-6.9,4.8s-3.8,4.3-5.4,7S167,64.2,166,67s-1.8,5.7-2.2,8.5
	s-0.7,5.5-0.7,8.1c-0.5,3.1-0.3,5.7,0.5,8s2,4.1,3.7,5.6s3.6,2.6,5.9,3.3s4.6,1.1,7.1,1.2s4.9-0.1,7.3-0.7s4.6-1.4,6.6-2.5
	s3.6-2.5,4.9-4.1s2-3.5,2.2-5.5c0-2.1-0.4-3.8-1.2-5.3S198,81,196.6,80s-2.9-1.8-4.6-2.3s-3.5-1-5.3-1.4s-3.6-0.6-5.4-0.7
	s-3.4-0.3-4.9-0.5v-1.8c0-0.1,0.9-0.4,2.6-0.7s3.8-0.7,6.2-1.1s4.8-0.8,7.4-1.2s4.7-0.7,6.4-0.9c0,0,0.2,0,0.5,0s0.7,0,1.1,0h1.2h1
	h0.7h1.1c0.4,0,0.8,0,1.1,0s0.6,0,0.7,0c0.1,0.9,0.1,2.4,0.2,4.3s0.2,4.2,0.3,6.6s0.3,5,0.4,7.8s0.3,5.3,0.4,7.8s0.2,4.6,0.3,6.6
	s0.2,3.4,0.2,4.4v1.5c0,0.7,0,1.5,0,2.3s0,1.6,0,2.2v1.5h-2.1L202.7,99.6z M202.7,78.9v-6c-1,0-2,0.2-3,0.7s-1.9,1-2.6,1.4
	L202.7,78.9z M212.9,86.4c0-4.7,0-9.1,0-13.3s0.1-8.3,0.3-12.4s0.4-8.2,0.6-12.4s0.6-8.7,1.1-13.6h2.8v37.5h21.3
	c-0.1-2.3-0.1-4.9-0.1-7.6s0-5.4-0.1-8.2s-0.1-5.5-0.1-8.1s0-5.1,0-7.5v-6.2v-4.1c0.2,0,0.5,0,1,0.1s1,0.2,1.5,0.4s0.9,0.4,1.3,0.7
	s0.6,0.7,0.6,1.1v73.1l-3-0.6c-0.1,0-0.2-0.4-0.3-1.3s-0.1-1.9-0.1-3.2s-0.1-2.7-0.1-4.4s-0.1-3.3-0.1-4.9s-0.1-3.1-0.1-4.5
	s0-2.6,0-3.6v-3.7c0-1.6,0-3.4-0.1-5.4l-21.4,3.8l-0.2,27.8h-4.7v-1.4v-3.2v-4.2V93v-3.9V86.4L212.9,86.4z M248.7,53l1.6-5.1
	c0.1-0.1,0.6-0.1,1.5-0.2s2.2-0.2,3.8-0.4c1.6-0.2,3.3-0.3,5.3-0.5s4-0.4,6-0.6s4.1-0.4,6.1-0.6s3.8-0.4,5.5-0.6h0.9h2h2.1h1.3
	c1.6,0,2.6,0.3,3.2,0.9s0.9,1.9,0.9,3.8l-17.8,2.1c-0.1,4.1-0.1,8.4,0.2,12.9s0.6,9,1,13.6s0.8,9.1,1.1,13.6s0.5,8.8,0.5,12.9
	c0,0.6-0.2,1-0.5,1.2s-0.8,0.4-1.3,0.4s-1,0-1.5,0s-1-0.2-1.4-0.3c-0.2-0.8-0.4-2.3-0.6-4.4s-0.4-4.5-0.6-7.3s-0.4-5.8-0.6-9.1
	s-0.4-6.5-0.6-9.8s-0.4-6.4-0.6-9.3s-0.4-5.6-0.5-7.8s-0.2-4-0.3-5.2s-0.2-1.7-0.2-1.4L248.7,53z M295.8,106.2c-1.6-1-2.6-2-3.2-3.1
	s-0.8-2.2-0.7-3.2s0.5-1.9,1.1-2.6s1.4-1.1,2.3-1.3s1.8,0.1,2.8,0.7s1.9,1.8,2.6,3.6c0,0.7-0.1,1.3-0.3,2s-0.6,1.3-1,1.9
	s-0.9,1-1.6,1.4S296.5,106.2,295.8,106.2L295.8,106.2z M296.7,100.3c-0.3,0-0.5,0.1-0.6,0.3s-0.2,0.4-0.2,0.7s0.1,0.5,0.2,0.7
	s0.3,0.3,0.6,0.2c0.6-0.1,0.9-0.4,0.9-0.9S297.3,100.5,296.7,100.3L296.7,100.3z M287.2,42.5c0-0.6,0-1,0.1-1.2s0.3-0.4,0.6-0.4
	s0.7-0.1,1.2-0.1s1.2-0.2,2-0.4l5.6,45c-0.1,0.1-0.4,0.2-0.9,0.3s-0.8,0.2-1,0.2c-0.8,0-1.4-0.1-1.9-0.4s-0.8-0.7-1-1.3
	s-0.4-1.2-0.5-2s-0.2-1.5-0.3-2.4c-0.1-0.3-0.2-1.2-0.3-2.5s-0.3-3.1-0.6-5.1s-0.5-4.2-0.8-6.7s-0.5-4.9-0.8-7.3s-0.5-4.7-0.8-6.8
	s-0.5-3.9-0.6-5.4c0,0,0-0.2,0-0.5s0-0.7,0-1.2v-1.2V42.5L287.2,42.5z"/>
<g>
	<defs>
		<rect id="SVGID_1_" x="220" y="-402" width="389" height="102"/>
	</defs>
	<clipPath id="SVGID_2_">
		<use xlink:href="#SVGID_1_"  style="overflow:visible;"/>
	</clipPath>
	<g style="clip-path:url(#SVGID_2_);">
		
			<image style="overflow:visible;" width="389" height="102" xlink:href="A85FDA288806E3C5.png"  transform="matrix(1 0 0 1 220 -402)">
		</image>
	</g>
</g>
<g>
	<defs>
		<rect id="SVGID_3_" x="180" y="-442" width="539" height="252"/>
	</defs>
	<clipPath id="SVGID_4_">
		<use xlink:href="#SVGID_3_"  style="overflow:visible;"/>
	</clipPath>
	<path class="st2" d="M-514.8-359.7l-0.6,3c0.8-1.1,1.7-1.9,2.7-2.5c1-0.6,2.1-0.9,3.3-0.8c1.7,0,2.9,0.6,3.7,1.8s1,2.7,0.8,4.7
		l-1.9,11.3h-1.9l1.9-11.4c0.1-0.6,0.1-1.2,0-1.8c-0.2-1.9-1.2-2.9-3.1-2.9c-1.1,0-2.2,0.3-3.2,1c-1,0.7-1.8,1.7-2.6,3.1l-2.1,12
		h-1.9l3-17.4H-514.8z M-531.8-343.6c1.2,0,2.3-0.2,3.4-0.8s2-1.5,2.7-2.6l0.7-3.9l-3.1,0c-2,0-3.6,0.3-4.8,1c-1.2,0.7-1.9,1.7-2,3
		c-0.1,0.9,0.2,1.7,0.7,2.3S-532.8-343.6-531.8-343.6z M-526.1-342.2c-0.1-0.4-0.1-0.8,0-1.2l0.1-1.2c-0.8,0.9-1.7,1.6-2.8,2
		c-1,0.5-2.2,0.7-3.4,0.7c-1.5,0-2.7-0.5-3.6-1.4s-1.3-2-1.2-3.4c0.1-1.1,0.5-2.1,1.2-3s1.7-1.5,3-2s2.8-0.7,4.4-0.7l3.6,0l0.3-2
		c0.1-1.2-0.1-2.1-0.8-2.9c-0.6-0.7-1.6-1.1-2.9-1.1c-1.3,0-2.4,0.3-3.3,0.9c-0.9,0.6-1.5,1.5-1.8,2.6h-1.9c0.2-1.5,1-2.8,2.4-3.7
		c1.4-1,3-1.4,4.8-1.4c1.8,0,3.2,0.6,4.1,1.6c1,1,1.4,2.4,1.2,4.1l-1.5,8.8l-0.1,1.4c0,0.6,0,1.2,0.1,1.7l0,0.2H-526.1z
		 M-552.2-350.7c-0.1,0.7-0.1,1.5-0.1,2.3c0,1.5,0.4,2.6,1,3.5c0.6,0.8,1.5,1.3,2.7,1.3c1.2,0,2.2-0.2,3.1-0.8
		c0.9-0.6,1.7-1.4,2.3-2.3l1.4-8.2c-0.3-1-0.8-1.9-1.5-2.5s-1.6-0.9-2.7-0.9c-1.6-0.1-3,0.6-4.1,1.9c-1.1,1.3-1.8,3.1-2.1,5.4
		L-552.2-350.7z M-554.1-351c0.2-1.8,0.7-3.4,1.5-4.9c0.8-1.4,1.7-2.5,2.8-3.2c1.1-0.7,2.3-1,3.7-1c1,0,2,0.3,2.8,0.7
		c0.8,0.5,1.5,1.1,2,2.1l1.8-9.8h1.9l-4.3,24.8h-1.8l0.4-2.3c-1.5,1.8-3.4,2.7-5.6,2.6c-1.6,0-2.9-0.7-3.8-1.9
		c-0.9-1.2-1.4-2.9-1.4-4.9c0-0.7,0-1.3,0.1-1.9L-554.1-351z M-561.1-344.4c-1.4,1.7-3.3,2.6-5.7,2.5c-1.6,0-2.9-0.6-3.7-1.8
		c-0.8-1.2-1.1-2.8-0.9-4.8l1.9-11.2h1.9l-1.9,11.2c-0.1,0.6-0.1,1.2,0,1.7c0.1,1,0.4,1.8,0.9,2.3c0.5,0.5,1.2,0.8,2.1,0.9
		c1.3,0.1,2.5-0.2,3.6-0.9c1.1-0.6,1.8-1.5,2.1-2.6l2.2-12.6h1.9l-3,17.4h-1.9L-561.1-344.4z M-577.4-348.1c0.2-2-0.8-3.5-3.2-4.4
		l-3.1-1.1l-1-0.4c-3.1-1.3-4.5-3.2-4.2-5.8c0.1-1.2,0.5-2.3,1.3-3.3c0.8-0.9,1.8-1.7,3.1-2.2s2.6-0.7,4.1-0.7c1.4,0,2.6,0.4,3.7,1
		c1.1,0.6,1.9,1.4,2.4,2.5c0.5,1.1,0.8,2.2,0.6,3.6h-2c0.2-1.6-0.2-2.9-1.1-3.8c-0.9-1-2.2-1.5-3.8-1.5c-1.7,0-3.2,0.4-4.4,1.2
		s-1.9,1.9-2.1,3.3c-0.1,1.1,0.2,2,1,2.8s2.2,1.5,4.1,2c2.5,0.8,4.2,1.7,5.2,2.9c1,1.1,1.4,2.4,1.3,4c-0.1,1.3-0.6,2.4-1.4,3.4
		c-0.8,1-1.8,1.7-3.1,2.2c-1.3,0.5-2.7,0.7-4.2,0.7c-1.5,0-2.8-0.3-4-0.9c-1.2-0.6-2.1-1.4-2.7-2.5s-0.8-2.3-0.7-3.6h2
		c-0.2,1.6,0.3,2.9,1.3,3.9c1,1,2.5,1.5,4.3,1.5s3.3-0.4,4.6-1.2S-577.6-346.8-577.4-348.1z M-612.6-359.7l-0.6,3
		c0.8-1.1,1.7-1.9,2.7-2.5c1-0.6,2.1-0.9,3.3-0.8c1.7,0,2.9,0.6,3.7,1.8s1,2.7,0.8,4.7l-1.9,11.3h-1.9l1.9-11.4
		c0.1-0.6,0.1-1.2,0-1.8c-0.2-1.9-1.2-2.9-3.1-2.9c-1.1,0-2.2,0.3-3.2,1c-1,0.7-1.8,1.7-2.6,3.1l-2.1,12h-1.9l3-17.4H-612.6z
		 M-621-364.7c0.1-0.7,0.5-1.1,1.4-1.3c0.4,0.1,0.7,0.2,0.9,0.4c0.2,0.2,0.3,0.5,0.3,0.9c-0.1,0.4-0.3,0.7-0.5,0.9
		c-0.2,0.2-0.5,0.3-0.9,0.4C-620.6-363.6-621-364-621-364.7z M-622.6-342.2h-1.9l3-17.4h1.9L-622.6-342.2z M-636.4-364.1l-0.8,4.5
		h3.5l-0.3,1.6h-3.5l-1.9,11.6l0,1c0,1.2,0.5,1.8,1.6,1.8c0.3,0,0.9,0,1.6-0.1l-0.1,1.6c-0.6,0.2-1.3,0.3-1.9,0.2
		c-1.1,0-1.9-0.4-2.5-1.2c-0.5-0.8-0.7-1.9-0.6-3.3l1.9-11.6h-3.1l0.3-1.6h3.1l0.8-4.5H-636.4z M-656-359.7l-0.6,3
		c0.8-1.1,1.7-1.9,2.7-2.5c1-0.6,2.1-0.9,3.3-0.8c1.7,0,2.9,0.6,3.7,1.8s1,2.7,0.8,4.7l-1.9,11.3h-1.9l1.9-11.4
		c0.1-0.6,0.1-1.2,0-1.8c-0.2-1.9-1.2-2.9-3.1-2.9c-1.1,0-2.2,0.3-3.2,1c-1,0.7-1.8,1.7-2.6,3.1l-2.1,12h-1.9l3-17.4H-656z
		 M-668.6-358.4c-1.4-0.1-2.6,0.4-3.8,1.5c-1.1,1-1.9,2.5-2.5,4.4l10.1,0l0-0.2c0.2-1.5-0.1-2.8-0.8-3.9
		C-666.3-357.7-667.3-358.3-668.6-358.4z M-670.7-341.9c-1.4,0-2.6-0.4-3.6-1.2s-1.8-1.8-2.2-3.1s-0.6-2.7-0.5-4.2l0-0.5
		c0.2-1.6,0.6-3.1,1.4-4.6c0.8-1.5,1.8-2.6,3.1-3.3c1.2-0.8,2.6-1.1,4-1.1c1.3,0,2.4,0.4,3.3,1.1c0.9,0.7,1.5,1.6,2,2.9
		c0.4,1.2,0.5,2.6,0.4,4.1l-0.1,1.2h-12.1l0,0.4c-0.2,1.2-0.1,2.3,0.3,3.4s0.9,1.9,1.6,2.5c0.8,0.6,1.7,1,2.7,1c1,0,2-0.2,2.8-0.6
		c0.8-0.4,1.6-1,2.3-1.7l1.1,0.9c-0.8,1-1.7,1.8-2.8,2.3C-668.2-342.2-669.4-341.9-670.7-341.9z M-701.3-359.7l-0.5,2.8
		c1.6-2.1,3.5-3.2,5.9-3.2c1.2,0,2.2,0.3,3.1,0.9c0.8,0.6,1.3,1.4,1.5,2.5c0.8-1.1,1.7-1.9,2.8-2.5c1.1-0.6,2.2-0.9,3.5-0.9
		c1.7,0,2.9,0.6,3.7,1.6s1.1,2.5,1,4.4l0,0.4l-1.9,11.4h-1.9l1.9-11.4c0.1-0.6,0.1-1.2,0-1.8c-0.2-1.9-1.3-2.9-3.3-2.9
		c-1.3,0-2.5,0.4-3.6,1.3c-1.1,0.9-1.8,2-2.1,3.3l-2,11.5h-1.9l1.9-11.5c0.3-3-0.8-4.5-3.3-4.6c-1.2,0-2.4,0.4-3.4,1.2
		c-1.1,0.8-1.8,1.8-2.1,3l-2.1,12h-1.9l3-17.4H-701.3z M-713.9-358.4c-1.4-0.1-2.6,0.4-3.8,1.5c-1.1,1-1.9,2.5-2.5,4.4l10.1,0l0-0.2
		c0.2-1.5-0.1-2.8-0.8-3.9C-711.5-357.7-712.5-358.3-713.9-358.4z M-715.9-341.9c-1.4,0-2.6-0.4-3.6-1.2c-1-0.8-1.8-1.8-2.2-3.1
		c-0.5-1.3-0.6-2.7-0.5-4.2l0-0.5c0.2-1.6,0.6-3.1,1.4-4.6c0.8-1.5,1.8-2.6,3.1-3.3c1.2-0.8,2.6-1.1,4-1.1c1.3,0,2.4,0.4,3.3,1.1
		c0.9,0.7,1.5,1.6,2,2.9s0.5,2.6,0.4,4.1l-0.1,1.2h-12.1l0,0.4c-0.2,1.2-0.1,2.3,0.3,3.4c0.3,1.1,0.9,1.9,1.6,2.5
		c0.8,0.6,1.7,1,2.7,1c1,0,2-0.2,2.8-0.6s1.6-1,2.3-1.7l1.1,0.9c-0.8,1-1.7,1.8-2.8,2.3S-714.6-341.9-715.9-341.9z M-732.7-343.5
		c1.3,0,2.4-0.3,3.4-1.1c1-0.7,1.6-1.8,1.9-3h1.8c-0.3,1.7-1.2,3.1-2.5,4.2c-1.4,1.1-2.9,1.6-4.7,1.5c-1.4,0-2.6-0.4-3.5-1.2
		c-1-0.7-1.6-1.8-2.1-3.1s-0.6-2.8-0.4-4.4l0.1-0.7c0.1-1.1,0.4-2.2,0.8-3.3s1-2,1.7-2.8s1.6-1.5,2.5-1.9s2.1-0.7,3.3-0.7
		c1.8,0,3.2,0.6,4.3,1.8c1.1,1.2,1.5,2.6,1.5,4.4l-1.8,0c0-1.3-0.3-2.4-1-3.3c-0.7-0.8-1.7-1.3-2.9-1.3c-1.3,0-2.5,0.3-3.5,1.2
		s-1.8,2-2.3,3.5c-0.5,1.5-0.8,3.1-0.7,4.8c0,1.7,0.4,3.1,1.2,4C-735.1-344.1-734.1-343.6-732.7-343.5z M-751.6-343.6
		c1.2,0,2.3-0.2,3.4-0.8s2-1.5,2.7-2.6l0.7-3.9l-3.1,0c-2,0-3.6,0.3-4.8,1c-1.2,0.7-1.9,1.7-2,3c-0.1,0.9,0.2,1.7,0.7,2.3
		S-752.6-343.6-751.6-343.6z M-745.9-342.2c-0.1-0.4-0.1-0.8,0-1.2l0.1-1.2c-0.8,0.9-1.7,1.6-2.8,2c-1,0.5-2.2,0.7-3.4,0.7
		c-1.5,0-2.7-0.5-3.6-1.4c-0.9-0.9-1.3-2-1.2-3.4c0.1-1.1,0.5-2.1,1.2-3s1.7-1.5,3-2s2.8-0.7,4.4-0.7l3.6,0l0.3-2
		c0.1-1.2-0.1-2.1-0.8-2.9c-0.6-0.7-1.6-1.1-2.9-1.1c-1.3,0-2.4,0.3-3.3,0.9c-0.9,0.6-1.5,1.5-1.8,2.6h-1.9c0.2-1.5,1-2.8,2.4-3.7
		c1.4-1,3-1.4,4.8-1.4c1.8,0,3.2,0.6,4.1,1.6c1,1,1.4,2.4,1.2,4.1l-1.5,8.8l-0.1,1.4c0,0.6,0,1.2,0.1,1.7l0,0.2H-745.9z M-762-342.2
		h-1.9l4.3-24.8h1.9L-762-342.2z M-768.8-351.2l0.1-1.5c0-1.7-0.3-3.1-0.9-4c-0.7-1-1.6-1.5-2.9-1.5c-1.1,0-2.2,0.3-3.1,0.8
		c-0.9,0.6-1.7,1.4-2.3,2.5l-1.4,8.4c0.3,1,0.9,1.7,1.6,2.3c0.7,0.5,1.6,0.8,2.7,0.8c1.6,0.1,2.9-0.5,4-1.7s1.8-2.9,2.2-5.1
		L-768.8-351.2z M-774.7-341.9c-1,0-1.9-0.2-2.8-0.6c-0.9-0.4-1.6-1-2.2-1.9l-1.6,8.9h-1.9l4.2-24.1h1.8l-0.5,2.5
		c1.5-1.9,3.4-2.9,5.7-2.8c1.6,0,2.9,0.6,3.8,1.8c0.9,1.2,1.4,2.8,1.4,5c0,0.7,0,1.3-0.1,2l-0.1,0.5c-0.3,1.9-0.8,3.5-1.5,4.9
		c-0.7,1.4-1.6,2.4-2.7,3.1S-773.4-341.9-774.7-341.9z M-787.3-346.8c0.2-1.5-0.7-2.6-2.7-3.2l-2.8-0.8c-2.5-0.9-3.7-2.3-3.6-4.3
		c0.1-1.5,0.7-2.6,2-3.5c1.3-0.9,2.8-1.4,4.5-1.3c1.7,0,3.1,0.5,4.2,1.4c1.1,0.9,1.6,2.2,1.5,3.8h-1.9c0.1-1-0.3-1.9-1-2.5
		c-0.7-0.7-1.7-1-2.8-1c-1.2,0-2.3,0.3-3.1,0.9c-0.8,0.6-1.3,1.3-1.4,2.3c-0.2,1.4,0.7,2.4,2.5,2.9l2,0.6l1.1,0.4
		c2.4,0.9,3.6,2.4,3.4,4.5c-0.1,1.4-0.7,2.5-1.8,3.4c-1.1,0.9-2.6,1.4-4.3,1.5l-0.7,0c-1.2,0-2.2-0.2-3.2-0.7
		c-0.9-0.4-1.7-1-2.2-1.8c-0.5-0.8-0.7-1.7-0.7-2.7l1.9,0c0,1.1,0.4,2,1.1,2.6c0.7,0.6,1.8,1,3.1,1c1.3,0,2.4-0.3,3.3-0.9
		C-788-345-787.5-345.8-787.3-346.8z M-801.9-364.7c0.1-0.7,0.5-1.1,1.4-1.3c0.4,0.1,0.7,0.2,0.9,0.4c0.2,0.2,0.3,0.5,0.3,0.9
		c-0.1,0.4-0.3,0.7-0.5,0.9c-0.2,0.2-0.5,0.3-0.9,0.4C-801.5-363.6-802-364-801.9-364.7z M-803.6-342.2h-1.9l3-17.4h1.9
		L-803.6-342.2z M-820.9-350.7c-0.1,0.7-0.1,1.5-0.1,2.3c0,1.5,0.4,2.6,1,3.5s1.6,1.3,2.7,1.3c1.2,0,2.2-0.2,3.1-0.8
		c0.9-0.6,1.7-1.4,2.3-2.3l1.4-8.2c-0.3-1-0.8-1.9-1.5-2.5c-0.7-0.6-1.6-0.9-2.7-0.9c-1.6-0.1-3,0.6-4.1,1.9
		c-1.1,1.3-1.8,3.1-2.1,5.4L-820.9-350.7z M-822.9-351c0.2-1.8,0.7-3.4,1.5-4.9c0.8-1.4,1.7-2.5,2.8-3.2c1.1-0.7,2.3-1,3.7-1
		c1,0,2,0.3,2.8,0.7c0.8,0.5,1.5,1.1,2,2.1l1.8-9.8h1.9l-4.3,24.8h-1.8l0.4-2.3c-1.5,1.8-3.4,2.7-5.6,2.6c-1.6,0-2.9-0.7-3.8-1.9
		c-0.9-1.2-1.4-2.9-1.4-4.9c0-0.7,0-1.3,0.1-1.9L-822.9-351z"/>
</g>
<g>
	<defs>
		<path id="SVGID_5_" d="M308,133.6l-0.5,2.5c0.7-0.9,1.4-1.6,2.3-2.1s1.8-0.7,2.8-0.7c1.4,0,2.5,0.5,3.1,1.5c0.6,1,0.9,2.3,0.7,4
			l-1.6,9.7h-1.6l1.6-9.7c0.1-0.5,0.1-1,0-1.5c-0.2-1.6-1-2.5-2.7-2.5c-1,0-1.9,0.3-2.7,0.9c-0.8,0.6-1.6,1.5-2.2,2.7l-1.8,10.2
			h-1.6l2.6-14.8H308z M293.5,147.2c1,0,2-0.2,2.9-0.7c0.9-0.5,1.7-1.2,2.3-2.2l0.6-3.3l-2.6,0c-1.7,0-3,0.3-4.1,0.9
			c-1.1,0.6-1.6,1.4-1.7,2.5c-0.1,0.8,0.1,1.5,0.6,2C291.9,146.9,292.6,147.2,293.5,147.2z M298.3,148.4c0-0.3-0.1-0.7,0-1l0.1-1
			c-0.7,0.7-1.5,1.3-2.4,1.7s-1.8,0.6-2.9,0.6c-1.3,0-2.3-0.4-3.1-1.2s-1.1-1.7-1-2.9c0.1-1,0.4-1.8,1-2.5c0.6-0.7,1.5-1.3,2.6-1.7
			s2.3-0.6,3.7-0.6l3,0l0.2-1.7c0.1-1-0.1-1.8-0.7-2.4c-0.5-0.6-1.4-0.9-2.4-1c-1.1,0-2,0.2-2.8,0.8c-0.8,0.6-1.3,1.3-1.5,2.2h-1.6
			c0.2-1.3,0.9-2.4,2-3.2c1.2-0.8,2.5-1.2,4.1-1.2c1.5,0,2.7,0.5,3.5,1.4c0.8,0.9,1.2,2,1,3.5l-1.2,7.5l-0.1,1.2c0,0.5,0,1,0.1,1.5
			l0,0.2H298.3z M276.1,141.2c-0.1,0.6-0.1,1.3-0.1,2c0,1.3,0.3,2.2,0.9,3c0.5,0.7,1.3,1.1,2.3,1.1c1,0,1.9-0.2,2.7-0.7
			c0.8-0.5,1.4-1.2,1.9-2l1.2-7c-0.3-0.9-0.7-1.6-1.3-2.1c-0.6-0.5-1.4-0.8-2.3-0.8c-1.4,0-2.5,0.5-3.5,1.6s-1.5,2.7-1.8,4.6
			L276.1,141.2z M274.5,140.9c0.2-1.6,0.6-2.9,1.3-4.1c0.6-1.2,1.4-2.1,2.4-2.7c0.9-0.6,2-0.9,3.1-0.8c0.9,0,1.7,0.2,2.4,0.6
			c0.7,0.4,1.3,1,1.7,1.8l1.5-8.3h1.6l-3.7,21.1h-1.5l0.4-2c-1.3,1.6-2.9,2.3-4.8,2.2c-1.4,0-2.5-0.6-3.2-1.6
			c-0.8-1-1.2-2.4-1.2-4.2c0-0.6,0-1.1,0.1-1.6L274.5,140.9z M268.6,146.5c-1.2,1.5-2.8,2.2-4.9,2.1c-1.4,0-2.4-0.5-3.1-1.5
			c-0.7-1-0.9-2.3-0.7-4.1l1.6-9.5h1.6l-1.6,9.5c-0.1,0.5-0.1,1,0,1.5c0.1,0.8,0.3,1.5,0.8,1.9c0.4,0.5,1,0.7,1.8,0.7
			c1.1,0,2.1-0.2,3-0.8c0.9-0.6,1.5-1.3,1.8-2.2l1.8-10.7h1.6l-2.6,14.8h-1.6L268.6,146.5z M254.7,143.4c0.2-1.7-0.7-3-2.8-3.8
			l-2.6-0.9l-0.9-0.3c-2.6-1.1-3.8-2.7-3.6-4.9c0.1-1.1,0.5-2,1.1-2.8c0.7-0.8,1.5-1.4,2.6-1.9c1.1-0.4,2.3-0.6,3.5-0.6
			c1.2,0,2.2,0.3,3.2,0.8c0.9,0.5,1.6,1.2,2.1,2.1s0.6,1.9,0.5,3h-1.7c0.1-1.4-0.2-2.4-1-3.2c-0.8-0.8-1.8-1.2-3.2-1.3
			c-1.4,0-2.7,0.3-3.7,1c-1,0.7-1.6,1.6-1.8,2.8c-0.1,0.9,0.2,1.7,0.8,2.4c0.7,0.7,1.8,1.2,3.5,1.7c2.1,0.7,3.6,1.5,4.4,2.4
			s1.2,2.1,1.1,3.4c-0.1,1.1-0.5,2-1.2,2.9c-0.7,0.8-1.6,1.4-2.7,1.9c-1.1,0.4-2.3,0.6-3.6,0.6c-1.3,0-2.4-0.3-3.4-0.8
			c-1-0.5-1.8-1.2-2.3-2.1c-0.5-0.9-0.7-1.9-0.6-3.1h1.7c-0.1,1.4,0.2,2.5,1.1,3.3c0.9,0.8,2.1,1.2,3.6,1.3c1.5,0,2.8-0.3,3.9-1
			C253.9,145.5,254.5,144.6,254.7,143.4z M224.7,133.6l-0.5,2.5c0.7-0.9,1.4-1.6,2.3-2.1c0.9-0.5,1.8-0.7,2.8-0.7
			c1.4,0,2.5,0.5,3.1,1.5c0.6,1,0.9,2.3,0.7,4l-1.6,9.7h-1.6l1.6-9.7c0.1-0.5,0.1-1,0-1.5c-0.2-1.6-1-2.5-2.7-2.5
			c-1,0-1.9,0.3-2.7,0.9c-0.8,0.6-1.6,1.5-2.2,2.7l-1.8,10.2h-1.6l2.6-14.8H224.7z M217.6,129.3c0-0.6,0.4-1,1.2-1.1
			c0.4,0.1,0.6,0.2,0.8,0.3c0.2,0.2,0.2,0.4,0.3,0.8c-0.1,0.3-0.2,0.6-0.4,0.8c-0.2,0.2-0.4,0.3-0.8,0.3
			C217.9,130.3,217.5,129.9,217.6,129.3z M216.2,148.4h-1.6l2.6-14.8h1.6L216.2,148.4z M204.5,129.8l-0.7,3.8h3l-0.2,1.3h-3
			l-1.6,9.9l0,0.9c0,1,0.5,1.5,1.4,1.5c0.3,0,0.7,0,1.3-0.1l-0.1,1.3c-0.5,0.2-1.1,0.2-1.6,0.2c-1,0-1.7-0.4-2.1-1
			c-0.4-0.7-0.6-1.6-0.5-2.8l1.6-9.9h-2.7l0.2-1.3h2.6l0.7-3.8H204.5z M187.8,133.6l-0.5,2.5c0.7-0.9,1.4-1.6,2.3-2.1
			c0.9-0.5,1.8-0.7,2.8-0.7c1.4,0,2.5,0.5,3.1,1.5s0.9,2.3,0.7,4l-1.6,9.7h-1.6l1.6-9.7c0.1-0.5,0.1-1,0-1.5c-0.2-1.6-1-2.5-2.7-2.5
			c-1,0-1.9,0.3-2.7,0.9c-0.8,0.6-1.6,1.5-2.2,2.7l-1.8,10.2h-1.6l2.6-14.8H187.8z M177,134.7c-1.2,0-2.3,0.4-3.2,1.3
			c-0.9,0.9-1.6,2.1-2.1,3.7l8.6,0l0-0.2c0.2-1.3-0.1-2.4-0.7-3.4C179,135.2,178.2,134.7,177,134.7z M175.3,148.7
			c-1.2,0-2.2-0.3-3.1-1c-0.9-0.6-1.5-1.5-1.9-2.6c-0.4-1.1-0.6-2.3-0.4-3.6l0-0.5c0.1-1.4,0.5-2.7,1.2-3.9c0.7-1.2,1.6-2.2,2.6-2.8
			c1.1-0.7,2.2-1,3.4-0.9c1.1,0,2,0.3,2.8,0.9c0.8,0.6,1.3,1.4,1.7,2.4c0.3,1,0.5,2.2,0.3,3.5l-0.1,1h-10.3l0,0.3
			c-0.1,1-0.1,1.9,0.2,2.9c0.3,0.9,0.7,1.6,1.4,2.2c0.6,0.5,1.4,0.8,2.3,0.8c0.9,0,1.7-0.1,2.4-0.5c0.7-0.4,1.4-0.9,1.9-1.5l1,0.8
			c-0.7,0.9-1.5,1.5-2.4,2S176.4,148.7,175.3,148.7z M149.2,133.6l-0.5,2.4c1.3-1.8,3-2.7,5-2.7c1,0,1.9,0.3,2.6,0.8
			c0.7,0.5,1.1,1.2,1.3,2.1c0.7-0.9,1.5-1.6,2.4-2.1c0.9-0.5,1.9-0.8,2.9-0.7c1.4,0,2.5,0.5,3.1,1.4c0.7,0.9,1,2.1,0.8,3.7l0,0.3
			l-1.6,9.7h-1.6l1.6-9.7c0.1-0.5,0.1-1.1,0-1.5c-0.2-1.6-1.1-2.4-2.8-2.5c-1.1,0-2.1,0.3-3.1,1.1s-1.5,1.7-1.8,2.8l-1.7,9.8h-1.6
			l1.6-9.8c0.3-2.5-0.7-3.8-2.8-3.9c-1.1,0-2,0.3-2.9,1c-0.9,0.7-1.5,1.5-1.8,2.5l-1.8,10.2h-1.6l2.6-14.8H149.2z M138.5,134.7
			c-1.2,0-2.3,0.4-3.2,1.3c-0.9,0.9-1.6,2.1-2.1,3.7l8.6,0l0-0.2c0.2-1.3-0.1-2.4-0.7-3.4C140.6,135.2,139.7,134.7,138.5,134.7z
			 M136.8,148.7c-1.2,0-2.2-0.3-3.1-1c-0.9-0.6-1.5-1.5-1.9-2.6c-0.4-1.1-0.6-2.3-0.4-3.6l0-0.5c0.1-1.4,0.5-2.7,1.2-3.9
			c0.7-1.2,1.6-2.2,2.6-2.8c1.1-0.7,2.2-1,3.4-0.9c1.1,0,2,0.3,2.8,0.9c0.8,0.6,1.3,1.4,1.7,2.4c0.3,1,0.5,2.2,0.3,3.5l-0.1,1H133
			l0,0.3c-0.1,1-0.1,1.9,0.2,2.9c0.3,0.9,0.7,1.6,1.4,2.2c0.6,0.5,1.4,0.8,2.3,0.8c0.9,0,1.7-0.1,2.4-0.5c0.7-0.4,1.4-0.9,1.9-1.5
			l1,0.8c-0.7,0.9-1.5,1.5-2.4,2S137.9,148.7,136.8,148.7z M122.5,147.3c1.1,0,2-0.3,2.9-0.9c0.8-0.6,1.4-1.5,1.7-2.6h1.5
			c-0.3,1.5-1,2.7-2.2,3.6c-1.2,0.9-2.5,1.3-4,1.3c-1.2,0-2.2-0.4-3-1c-0.8-0.6-1.4-1.5-1.8-2.6c-0.4-1.1-0.5-2.4-0.3-3.8l0.1-0.6
			c0.1-1,0.3-1.9,0.7-2.8c0.4-0.9,0.8-1.7,1.4-2.4c0.6-0.7,1.3-1.3,2.2-1.7c0.8-0.4,1.8-0.6,2.8-0.6c1.5,0,2.7,0.5,3.6,1.5
			c0.9,1,1.3,2.2,1.3,3.8l-1.5,0c0-1.1-0.3-2.1-0.9-2.8c-0.6-0.7-1.4-1.1-2.5-1.1c-1.1,0-2.1,0.3-3,1c-0.9,0.7-1.5,1.7-2,2.9
			c-0.4,1.3-0.6,2.6-0.6,4c0,1.5,0.4,2.6,1,3.4C120.5,146.9,121.4,147.3,122.5,147.3z M106.4,147.2c1,0,2-0.2,2.9-0.7
			c0.9-0.5,1.7-1.2,2.3-2.2l0.6-3.3l-2.6,0c-1.7,0-3,0.3-4.1,0.9c-1.1,0.6-1.6,1.4-1.7,2.5c-0.1,0.8,0.1,1.5,0.6,2
			S105.5,147.2,106.4,147.2z M111.3,148.4c0-0.3-0.1-0.7,0-1l0.1-1c-0.7,0.7-1.5,1.3-2.4,1.7c-0.9,0.4-1.8,0.6-2.9,0.6
			c-1.3,0-2.3-0.4-3.1-1.2c-0.8-0.8-1.1-1.7-1-2.9c0.1-1,0.4-1.8,1-2.5c0.6-0.7,1.5-1.3,2.6-1.7c1.1-0.4,2.3-0.6,3.7-0.6l3,0
			l0.2-1.7c0.1-1-0.1-1.8-0.7-2.4c-0.5-0.6-1.4-0.9-2.4-1c-1.1,0-2,0.2-2.8,0.8c-0.8,0.6-1.3,1.3-1.5,2.2h-1.6
			c0.2-1.3,0.9-2.4,2-3.2c1.2-0.8,2.5-1.2,4.1-1.2c1.5,0,2.7,0.5,3.5,1.4c0.8,0.9,1.2,2,1,3.5l-1.2,7.5l-0.1,1.2c0,0.5,0,1,0.1,1.5
			l0,0.2H111.3z M97.6,148.4H96l3.7-21.1h1.6L97.6,148.4z M91.8,140.7l0.1-1.3c0-1.5-0.2-2.6-0.8-3.4s-1.4-1.3-2.5-1.3
			c-1,0-1.8,0.2-2.6,0.7c-0.8,0.5-1.4,1.2-2,2.1l-1.2,7.1c0.3,0.8,0.8,1.5,1.4,1.9c0.6,0.4,1.4,0.7,2.3,0.7c1.3,0,2.4-0.5,3.4-1.5
			s1.5-2.5,1.9-4.3L91.8,140.7z M86.8,148.7c-0.9,0-1.7-0.2-2.4-0.5s-1.4-0.9-1.8-1.6l-1.4,7.6h-1.6l3.6-20.5h1.5l-0.4,2.1
			c1.3-1.6,2.9-2.4,4.8-2.4c1.4,0,2.5,0.6,3.2,1.5c0.8,1,1.2,2.4,1.2,4.2c0,0.6,0,1.1-0.1,1.7l-0.1,0.4c-0.2,1.6-0.7,3-1.3,4.1
			s-1.4,2-2.3,2.6C88.9,148.4,87.9,148.7,86.8,148.7z M76,144.5c0.1-1.3-0.6-2.2-2.3-2.7l-2.4-0.7c-2.2-0.7-3.2-2-3.1-3.7
			c0.1-1.2,0.6-2.2,1.7-3c1.1-0.8,2.4-1.1,3.8-1.1c1.5,0,2.6,0.4,3.5,1.2c0.9,0.8,1.3,1.9,1.3,3.2H77c0.1-0.9-0.2-1.6-0.8-2.2
			s-1.4-0.8-2.4-0.9c-1,0-1.9,0.2-2.6,0.7c-0.7,0.5-1.1,1.1-1.2,1.9c-0.1,1.2,0.6,2,2.2,2.5l1.7,0.5l0.9,0.3c2.1,0.8,3,2,2.9,3.8
			c-0.1,1.2-0.6,2.2-1.5,2.9c-1,0.8-2.2,1.2-3.7,1.3l-0.6,0c-1,0-1.9-0.2-2.7-0.6c-0.8-0.4-1.4-0.9-1.9-1.6
			c-0.4-0.7-0.6-1.4-0.6-2.3l1.6,0c0,0.9,0.3,1.7,0.9,2.2c0.6,0.5,1.5,0.8,2.6,0.8c1.1,0,2-0.2,2.8-0.7
			C75.5,146,75.9,145.4,76,144.5z M63.6,129.3c0-0.6,0.4-1,1.2-1.1c0.4,0.1,0.6,0.2,0.8,0.3s0.2,0.4,0.3,0.8
			c-0.1,0.3-0.2,0.6-0.4,0.8c-0.2,0.2-0.4,0.3-0.8,0.3C63.9,130.3,63.6,129.9,63.6,129.3z M62.2,148.4h-1.6l2.6-14.8h1.6L62.2,148.4
			z M47.4,141.2c-0.1,0.6-0.1,1.3-0.1,2c0,1.3,0.3,2.2,0.9,3c0.5,0.7,1.3,1.1,2.3,1.1c1,0,1.9-0.2,2.7-0.7c0.8-0.5,1.4-1.2,1.9-2
			l1.2-7c-0.3-0.9-0.7-1.6-1.3-2.1s-1.4-0.8-2.3-0.8c-1.4,0-2.5,0.5-3.5,1.6s-1.5,2.7-1.8,4.6L47.4,141.2z M45.8,140.9
			c0.2-1.6,0.6-2.9,1.3-4.1s1.4-2.1,2.4-2.7c0.9-0.6,2-0.9,3.1-0.8c0.9,0,1.7,0.2,2.4,0.6c0.7,0.4,1.3,1,1.7,1.8l1.5-8.3h1.6
			l-3.7,21.1h-1.5l0.4-2c-1.3,1.6-2.9,2.3-4.8,2.2c-1.4,0-2.5-0.6-3.2-1.6c-0.8-1-1.2-2.4-1.2-4.2c0-0.6,0-1.1,0.1-1.6L45.8,140.9z"
			/>
	</defs>
	<clipPath id="SVGID_6_">
		<use xlink:href="#SVGID_5_"  style="overflow:visible;"/>
	</clipPath>
	<g class="st3">
		<defs>
			<rect id="SVGID_7_" x="-431.7" y="17.4" width="1225.3" height="871.3"/>
		</defs>
		<clipPath id="SVGID_8_">
			<use xlink:href="#SVGID_7_"  style="overflow:visible;"/>
		</clipPath>
		<rect x="41.4" y="123.1" class="st4" width="279.2" height="35.3"/>
	</g>
</g>
</svg>
